<svg width="1440" height="810" viewBox="0 0 1440 810" fill="none"
  xmlns="http://www.w3.org/2000/svg">
  <g clip-path="url(#clip0_89_6)">
    <path
      d="M592.66 0C577.66 64.092 561.96 125.285 546.062 183.777C634.056 325.56 748.348 550.932 819.642 809.5H1239.31C1184.52 593.727 1083.12 290.064 902.637 0H592.66Z"
      fill="#f16b28" />
    <path
      d="M545.962 183.777C492.166 380.353 434.37 544.933 382.472 674.517C394.172 719.011 405.272 764.007 415.572 809.4H819.642C748.348 550.932 634.056 325.56 545.962 183.777Z"
      fill="#E8F3FF" />
    <path
      d="M153.89 0C227.984 180.678 314.978 417.448 382.373 674.517C449.67 506.337 527.063 279.465 592.56 0H153.89Z"
      fill="#ed4f00" />
    <path d="M153.89 0H0V809.5H415.57C345.477 500.938 240.884 211.874 153.89 0Z" fill="#f16b28" />
    <path
      d="M1144.22 501.538C1196.82 366.955 1245.71 210.574 1278.31 38.195C1279.51 32.095 1280.61 25.897 1281.71 19.698C1281.71 19.498 1281.81 19.298 1281.81 19.098C1282.91 12.798 1284.11 6.398 1285.21 0H902.536C1007.83 169.28 1086.22 343.158 1144.22 501.638V501.538Z"
      fill="#E8F3FF" />
    <path
      d="M1285.31 0C1283.11 12.798 1280.81 25.597 1278.41 38.195C1321.51 86.39 1379.6 158.98 1440 257.168V0H1285.31Z"
      fill="#EEF4F8" />
    <path
      d="M1278.31 38.1961C1245.81 209.874 1197.22 365.556 1144.82 499.838V503.638C1185.82 615.924 1216.41 720.211 1239.11 809.6L1439.7 810V256.768C1379.4 158.78 1321.41 86.2891 1278.31 38.1961Z"
      fill="#ed4f00" />
  </g>
  <defs>
    <clipPath id="clip0_89_6">
      <rect width="1440" height="810" fill="white" />
    </clipPath>
  </defs>
</svg>